<svg width="40" height="45" viewBox="0 0 40 45" fill="none" xmlns="http://www.w3.org/2000/svg">
<path fill-rule="evenodd" clip-rule="evenodd" d="M19.5958 0.0166016L0 11.2588V33.7421L19.5958 44.9842L39.1917 33.7421V11.2588L19.5958 0.0166016ZM6.45897 21.4771L9.45968 19.7561V9.2749L12.2789 7.65683V18.138L15.2787 16.417V5.9358L19.5958 3.45868L24.6703 6.37022V14.235L5.70263 25.1173V33.5714L3.00071 32.021V12.9798L6.45897 10.9959V21.4771ZM27.671 15.957V8.09126L30.4893 9.70835V18.1625L11.5216 29.0448V36.9096L8.70236 35.2925V26.8383L27.671 15.957ZM33.49 19.8836V11.4294L36.1919 12.9798V32.021L32.7327 34.0049V23.5237L29.733 25.2448V35.7269L26.9137 37.344V26.8619L23.914 28.5839V39.065L19.5958 41.5422L14.5223 38.6306V30.7658L33.49 19.8836Z" fill="#6877DD"/>
</svg>
