<svg width="1186" height="555" viewBox="0 0 1186 555" fill="none" xmlns="http://www.w3.org/2000/svg">
<g opacity="0.5">
<path opacity="0.0526316" d="M476.395 756.521C513.872 754.195 595.488 721.617 622.131 609.903C655.435 470.262 575.643 355.195 585.64 217.565C593.019 115.984 662.093 -124.52 806.528 -193.819" stroke="white" stroke-width="3"/>
<path opacity="0.105263" d="M411.606 740.483C449.121 742.088 533.695 718.219 571.87 609.902C619.587 474.507 552.26 351.73 576.589 215.899C594.545 115.646 688.38 -116.321 839.268 -170.142" stroke="white" stroke-width="3"/>
<path opacity="0.157895" d="M349.103 719.432C386.245 724.95 472.851 710.052 522.138 606.32C583.747 476.654 529.622 347.512 568.016 214.968C596.353 117.141 713.921 -103.747 869.608 -141.501" stroke="white" stroke-width="3"/>
<path opacity="0.210526" d="M289.395 693.638C325.757 703.008 413.446 697.245 473.306 599.232C548.131 476.716 507.802 342.624 559.84 214.82C598.248 120.491 738.261 -86.8977 897.041 -108.171" stroke="white" stroke-width="3"/>
<path opacity="0.263158" d="M232.963 663.419C268.146 676.539 355.957 679.973 425.734 588.754C512.956 474.731 486.865 337.158 551.977 215.493C600.034 125.696 760.958 -65.9213 921.092 -70.4813" stroke="white" stroke-width="3"/>
<path opacity="0.315789" d="M180.254 629.139C213.873 645.864 300.844 658.458 379.774 575.033C478.437 470.751 466.868 331.205 544.341 217.013C601.522 132.73 781.593 -41.016 941.327 -28.8125" stroke="white" stroke-width="3"/>
<path opacity="0.368421" d="M131.671 591.209C163.357 611.356 248.535 632.972 335.753 558.255C444.776 464.857 447.857 324.866 536.842 219.397C602.519 141.554 799.766 -12.418 957.349 16.4154" stroke="white" stroke-width="3"/>
<path opacity="0.421053" d="M87.5714 550.084C116.979 573.434 199.431 603.835 293.981 538.643C412.169 457.154 429.867 318.251 529.388 222.662C602.842 152.11 815.103 19.5995 968.809 64.7469" stroke="white" stroke-width="3"/>
<path opacity="0.473684" d="M48.267 506.247C75.0724 532.542 153.895 571.396 254.742 516.444C380.8 447.755 412.92 311.464 521.888 226.801C602.315 164.313 827.264 54.716 975.409 115.683" stroke="white" stroke-width="3"/>
<path opacity="0.526316" d="M14.0141 460.213C37.9241 489.167 112.253 536.046 218.292 491.937C350.839 436.801 397.03 304.614 514.251 231.805C600.769 178.066 835.942 92.5832 976.902 168.701" stroke="white" stroke-width="3"/>
<path opacity="0.578947" d="M-14.9876 412.526C5.76487 443.82 74.7869 498.213 184.855 465.429C322.44 424.45 382.195 297.815 506.384 237.658C598.045 193.257 840.865 132.825 973.097 223.26" stroke="white" stroke-width="3"/>
<path opacity="0.631579" d="M-38.5906 363.742C-21.2229 397.034 41.7355 458.343 154.627 437.245C295.742 410.872 368.407 291.177 498.204 244.33C594.004 209.754 841.81 175.034 963.865 278.796" stroke="white" stroke-width="3"/>
<path opacity="0.684211" d="M-56.7117 314.433C-42.9191 349.358 13.2858 416.912 127.765 407.73C270.863 396.252 355.641 284.808 489.624 251.786C588.513 227.413 838.592 218.786 949.131 334.738" stroke="white" stroke-width="3"/>
<path opacity="0.736842" d="M-69.3262 265.171C-59.2598 301.346 -10.4241 374.405 104.387 377.239C247.902 380.782 343.864 278.81 480.565 259.974C581.46 246.072 831.071 263.632 928.884 390.503" stroke="white" stroke-width="3"/>
<path opacity="0.789474" d="M-76.4675 216.535C-70.2376 253.564 -29.3062 331.328 84.5801 346.147C226.938 364.672 333.034 273.289 470.955 268.846C572.75 265.566 819.158 309.121 903.174 445.522" stroke="white" stroke-width="3"/>
<path opacity="0.842105" d="M-78.234 169.092C-75.9088 206.57 -43.3301 288.186 68.3832 314.829C208.025 348.132 323.092 268.341 460.721 278.338C562.302 285.717 802.807 354.79 872.105 499.226" stroke="white" stroke-width="3"/>
<path opacity="0.894737" d="M-74.7763 123.398C-76.3813 160.914 -52.5123 245.488 55.8041 283.662C191.2 331.38 313.977 264.053 449.807 288.382C550.061 306.338 782.027 400.173 835.849 551.061" stroke="white" stroke-width="3"/>
<path opacity="0.947368" d="M-66.3077 79.9878C-71.8254 117.13 -56.9276 203.736 46.8052 253.023C176.471 314.632 305.613 260.508 438.157 298.901C535.984 327.238 756.872 444.806 794.626 600.494" stroke="white" stroke-width="3"/>
<path d="M-53.0943 39.3743C-62.4642 75.7362 -56.7008 163.425 41.3118 223.285C163.828 298.11 297.92 257.782 425.724 309.819C520.053 348.227 727.442 488.24 748.715 647.021" stroke="white" stroke-width="3"/>
</g>
</svg>
