<svg width="120" height="45" viewBox="0 0 120 45" fill="none" xmlns="http://www.w3.org/2000/svg">
<path fill-rule="evenodd" clip-rule="evenodd" d="M19.5958 0.0166016L0 11.2588V33.7421L19.5958 44.9842L39.1917 33.7421V11.2588L19.5958 0.0166016ZM6.45897 21.4771L9.45968 19.7561V9.2749L12.2789 7.65683V18.138L15.2787 16.417V5.9358L19.5958 3.45868L24.6703 6.37022V14.235L5.70263 25.1173V33.5714L3.00071 32.021V12.9798L6.45897 10.9959V21.4771ZM27.671 15.957V8.09126L30.4893 9.70835V18.1625L11.5216 29.0448V36.9096L8.70236 35.2925V26.8383L27.671 15.957ZM33.49 19.8836V11.4294L36.1919 12.9798V32.021L32.7327 34.0049V23.5237L29.733 25.2448V35.7269L26.9137 37.344V26.8619L23.914 28.5839V39.065L19.5958 41.5422L14.5223 38.6306V30.7658L33.49 19.8836Z" fill="#6877DD"/>
<path d="M49.9017 15.5127V21.0479H55.8949V15.5127H58.8831V29.4873H55.8949V23.6582H49.9017V29.4873H46.9134V15.5127H49.9017Z" fill="black" stroke="#F6F7F9" stroke-width="0.7"/>
<path d="M65.1142 15.5127V29.4873H62.1259V15.5127H65.1142Z" fill="black" stroke="#F6F7F9" stroke-width="0.7"/>
<path d="M73.401 15.5127C74.5282 15.5127 75.4954 15.7094 76.3111 16.0889V16.0879C77.0246 16.421 77.5892 16.8706 78.0142 17.4346L78.1881 17.6826C78.6259 18.3604 78.8492 19.1525 78.8492 20.0703C78.8492 20.8753 78.6809 21.5825 78.3502 22.2002L78.1988 22.459C77.8207 23.0529 77.2976 23.5368 76.6207 23.9082L76.3209 24.0605C75.4976 24.4483 74.5274 24.6475 73.401 24.6475H71.3433V29.4873H68.3551V15.5127H73.401ZM71.3433 22.2207H73.2359C73.9899 22.2207 74.6266 22.0416 75.0972 21.6338C75.564 21.23 75.7984 20.6989 75.7984 20.0703C75.7984 19.4523 75.5621 18.9299 75.0982 18.5273H75.0992C74.6288 18.1168 73.9913 17.9356 73.2359 17.9355H71.3433V22.2207Z" fill="black" stroke="#F6F7F9" stroke-width="0.7"/>
<path d="M89.6768 15.5127V17.9355H83.835V21.1738H89.4639V23.5137H83.835V27.0654H89.8858V29.4873H80.8468V15.5127H89.6768Z" fill="black" stroke="#F6F7F9" stroke-width="0.7"/>
<path d="M97.4571 15.5127C98.5843 15.5127 99.5515 15.7094 100.367 16.0889V16.0879C101.081 16.421 101.645 16.8706 102.07 17.4346L102.244 17.6826C102.683 18.3614 102.905 19.146 102.905 20.0469C102.905 20.8379 102.735 21.5321 102.399 22.1377L102.245 22.3926C101.807 23.0578 101.182 23.5744 100.354 23.9395L99.9337 24.124L100.223 24.4805L104.291 29.4873H100.725L96.8028 24.6279L96.6983 24.498H95.3995V29.4873H92.4112V15.5127H97.4571ZM95.3995 22.1816H97.2921C97.9521 22.1816 98.5222 22.0441 98.9698 21.7363L99.1544 21.5938L99.1553 21.5928C99.6186 21.1883 99.8545 20.6644 99.8546 20.0469C99.8546 19.4976 99.6755 19.0227 99.3184 18.6416L99.1544 18.4844L99.1534 18.4834L98.9698 18.3418C98.5225 18.0346 97.9527 17.8965 97.2921 17.8965H95.3995V22.1816Z" fill="black" stroke="#F6F7F9" stroke-width="0.7"/>
<path d="M110.245 15.2422C111.042 15.2422 111.789 15.3703 112.487 15.624L112.783 15.7402L112.784 15.7412C113.459 16.0244 114.021 16.4367 114.472 16.9814L114.659 17.2236C115.073 17.7956 115.317 18.49 115.381 19.3203H112.479C112.41 18.8693 112.229 18.4702 111.924 18.1357H111.923C111.521 17.6911 110.939 17.4961 110.245 17.4961C109.726 17.4961 109.269 17.5951 108.905 17.8223L108.755 17.9277V17.9287C108.363 18.2373 108.168 18.6626 108.168 19.168C108.168 19.7011 108.39 20.1311 108.803 20.4375L108.993 20.5615H108.994C109.346 20.7644 109.834 20.9744 110.451 21.1904L111.11 21.4082L111.115 21.4102C111.844 21.6277 112.473 21.8474 113.002 22.0693L113.497 22.292C114.007 22.5388 114.46 22.897 114.855 23.3721L115.021 23.582L115.022 23.583C115.43 24.1255 115.65 24.865 115.65 25.833C115.65 26.4571 115.496 27.032 115.186 27.5635L115.044 27.7891C114.694 28.3024 114.199 28.7325 113.543 29.0752L113.254 29.2158C112.459 29.5725 111.495 29.7588 110.351 29.7588C108.76 29.7587 107.494 29.3826 106.524 28.6582L106.335 28.5088C105.436 27.7626 104.93 26.7342 104.837 25.3867H107.796C107.862 25.8868 108.027 26.3212 108.309 26.6729L108.468 26.8486L108.469 26.8506C108.927 27.3037 109.566 27.5049 110.328 27.5049C110.939 27.5049 111.464 27.4044 111.87 27.168L112.036 27.0586C112.464 26.7391 112.681 26.2907 112.681 25.75C112.681 25.1411 112.388 24.6633 111.855 24.3467H111.854C111.501 24.1364 111.009 23.9236 110.386 23.7061L109.719 23.4863H109.718C108.743 23.1834 107.948 22.8832 107.327 22.5869H107.328C106.817 22.3407 106.367 21.9855 105.976 21.5166L105.812 21.3086C105.414 20.7686 105.199 20.038 105.199 19.0859C105.199 18.3459 105.404 17.6935 105.815 17.1201L105.816 17.1211C106.18 16.6136 106.672 16.1978 107.303 15.8779L107.581 15.7471C108.344 15.4146 109.229 15.2422 110.245 15.2422Z" fill="black" stroke="#F6F7F9" stroke-width="0.7"/>
</svg>
